<?xml version="1.0" standalone="no"?>
<svg xmlns="http://www.w3.org/2000/svg" width="24" height="24"><rect width="24" height="24" opacity="0"></rect><g><path d="M12.02 6.29Q12.65 6.29 13.09 6.73Q13.54 7.18 13.54 7.8L13.54 11.5Q13.54 12.12 13.09 12.56Q12.65 13.01 12.02 13.01Q11.4 13.01 10.96 12.56Q10.51 12.12 10.51 11.5L10.51 7.8Q10.51 7.18 10.96 6.73Q11.4 6.29 12.02 6.29ZM12.02 4.99Q11.26 4.99 10.61 5.36Q9.96 5.74 9.59 6.38Q9.22 7.03 9.22 7.8L9.22 11.5Q9.22 12.24 9.6 12.89Q9.98 13.54 10.63 13.92Q11.28 14.3 12.02 14.3Q12.77 14.3 13.42 13.92Q14.06 13.54 14.45 12.89Q14.83 12.24 14.83 11.5L14.83 7.8Q14.83 7.03 14.45 6.38Q14.06 5.74 13.43 5.36Q12.79 4.99 12.02 4.99ZM17.42 11.5Q17.42 11.23 17.23 11.04Q17.04 10.85 16.78 10.85Q16.51 10.85 16.32 11.04Q16.13 11.23 16.13 11.5Q16.13 12.6 15.58 13.55Q15.02 14.5 14.08 15.05Q13.13 15.6 12.02 15.6Q10.9 15.6 9.96 15.05Q9.02 14.5 8.47 13.55Q7.92 12.6 7.92 11.5Q7.92 11.23 7.73 11.04Q7.54 10.85 7.27 10.85Q7.01 10.85 6.82 11.04Q6.62 11.23 6.62 11.5Q6.62 12.86 7.25 14.03Q7.87 15.19 8.96 15.95Q10.06 16.7 11.38 16.87L11.38 18.58Q11.38 18.84 11.57 19.02Q11.76 19.2 12.02 19.2Q12.29 19.2 12.48 19.02Q12.67 18.84 12.67 18.58L12.67 16.87Q13.99 16.7 15.08 15.95Q16.18 15.19 16.8 14.02Q17.42 12.84 17.42 11.5Z" fill="rgba(0,0,0,0.9019607843137255)"></path><path d="M12 22.99Q14.98 22.99 17.51 21.52Q20.04 20.04 21.52 17.51Q22.99 14.98 22.99 12Q22.99 9.02 21.52 6.49Q20.04 3.96 17.51 2.48Q14.98 1.01 12 1.01Q9.02 1.01 6.49 2.48Q3.96 3.96 2.48 6.49Q1.01 9.02 1.01 12Q1.01 14.98 2.48 17.51Q3.96 20.04 6.49 21.52Q9.02 22.99 12 22.99ZM12 2.5Q14.57 2.5 16.75 3.78Q18.94 5.06 20.22 7.25Q21.5 9.43 21.5 12Q21.5 14.57 20.22 16.75Q18.94 18.94 16.75 20.22Q14.57 21.5 12 21.5Q9.41 21.5 7.22 20.22Q5.04 18.94 3.77 16.75Q2.5 14.57 2.5 12Q2.5 9.43 3.77 7.25Q5.04 5.06 7.22 3.78Q9.41 2.5 12 2.5Z" fill="rgba(0,0,0,0.9019607843137255)"></path></g></svg>