<?xml version="1.0" standalone="no"?>
<svg xmlns="http://www.w3.org/2000/svg" width="24" height="24"><rect width="24" height="24" opacity="0"></rect><g><path d="M11.83 21.89Q12.82 21.89 13.44 21.38Q14.06 20.88 14.23 20.16Q14.4 19.44 14.14 18.86Q13.94 18.36 13.66 18.05Q13.42 17.69 13.49 17.4Q13.56 17.11 13.88 16.96Q14.21 16.8 14.74 16.82Q16.51 16.94 18 16.45Q19.49 15.96 20.48 14.86Q21.48 13.75 21.79 12.07Q22.08 10.49 21.62 8.86Q21.17 7.22 20.35 6.17Q18.24 3.48 15.5 2.62Q12.77 1.75 10.24 2.27Q7.7 2.78 6.12 4.03Q4.42 5.35 3.26 7.33Q2.11 9.31 2.11 12.6Q2.11 14.57 3.35 16.75Q4.58 18.94 6.82 20.41Q9.05 21.89 11.83 21.89ZM7.03 5.23Q8.4 4.18 10.54 3.73Q12.67 3.29 15 4.02Q17.33 4.75 19.18 7.08Q19.8 7.9 20.16 9.24Q20.52 10.58 20.3 11.81Q19.94 13.75 18.49 14.62Q17.04 15.48 14.81 15.31Q13.46 15.24 12.74 15.86Q12.02 16.49 11.96 17.39Q11.9 18.29 12.46 18.94Q12.62 19.13 12.77 19.46Q12.82 19.56 12.78 19.79Q12.74 20.02 12.52 20.21Q12.29 20.4 11.83 20.4Q9.48 20.4 7.6 19.16Q5.71 17.93 4.66 16.09Q3.6 14.26 3.6 12.6Q3.6 9.77 4.58 8.06Q5.57 6.36 7.03 5.23ZM7.32 8.66Q6.77 8.66 6.37 9.05Q5.98 9.43 5.98 9.98Q5.98 10.54 6.37 10.93Q6.77 11.33 7.32 11.33Q7.87 11.33 8.27 10.93Q8.66 10.54 8.66 9.98Q8.66 9.43 8.27 9.05Q7.87 8.66 7.32 8.66ZM9.98 5.3Q9.43 5.3 9.05 5.7Q8.66 6.1 8.66 6.65Q8.66 7.2 9.05 7.6Q9.43 7.99 9.98 7.99Q10.54 7.99 10.93 7.6Q11.33 7.2 11.33 6.65Q11.33 6.1 10.93 5.7Q10.54 5.3 9.98 5.3ZM14.26 5.3Q13.7 5.3 13.31 5.7Q12.91 6.1 12.91 6.65Q12.91 7.2 13.31 7.6Q13.7 7.99 14.26 7.99Q14.81 7.99 15.19 7.6Q15.58 7.2 15.58 6.65Q15.58 6.1 15.19 5.7Q14.81 5.3 14.26 5.3ZM16.92 8.66Q16.37 8.66 15.97 9.05Q15.58 9.43 15.58 9.98Q15.58 10.54 15.97 10.93Q16.37 11.33 16.92 11.33Q17.47 11.33 17.87 10.93Q18.26 10.54 18.26 9.98Q18.26 9.43 17.87 9.05Q17.47 8.66 16.92 8.66Z" fill="rgba(0,0,0,0.9019607843137255)"></path></g></svg>