<?xml version="1.0" standalone="no"?>
<svg xmlns="http://www.w3.org/2000/svg" width="40" height="40"><rect width="40" height="40" opacity="0"></rect><g><path d="M27.56 37.44Q28.44 37.44 29.22 37.02Q30 36.6 30.5 35.86Q31 35.12 31.08 34.2L32.96 12.88Q33 12.52 32.74 12.26Q32.48 12 32.12 12L7.88 12Q7.52 12 7.26 12.26Q7 12.52 7.04 12.88L8.92 34.2Q9 35.12 9.48 35.86Q9.96 36.6 10.74 37.02Q11.52 37.44 12.44 37.44L27.56 37.44ZM22.92 31.4Q22.4 31.4 22.02 31.02Q21.64 30.64 21.68 30.12L22.12 18.44Q22.12 17.92 22.48 17.58Q22.84 17.24 23.36 17.24Q23.88 17.28 24.26 17.66Q24.64 18.04 24.6 18.56L24.2 30.2Q24.16 30.72 23.8 31.06Q23.44 31.4 22.92 31.4ZM17.12 31.4Q16.6 31.4 16.24 31.06Q15.88 30.72 15.84 30.2L15.4 18.56Q15.36 18.04 15.72 17.66Q16.08 17.28 16.6 17.24Q17.12 17.2 17.5 17.56Q17.88 17.92 17.88 18.44L18.36 30.12Q18.4 30.64 18.02 31.02Q17.64 31.4 17.12 31.4ZM26.28 7.56Q25.84 5.4 24.12 3.98Q22.4 2.56 20.16 2.56Q17.92 2.56 16.2 3.98Q14.48 5.4 14.04 7.56L5.72 7.56Q5.2 7.56 4.84 7.92Q4.48 8.28 4.48 8.8Q4.48 9.32 4.84 9.7Q5.2 10.08 5.72 10.08L14.88 10.08L25.48 10.08L34.28 10.04Q34.8 10.04 35.16 9.68Q35.52 9.32 35.52 8.8Q35.52 8.28 35.16 7.92Q34.8 7.56 34.28 7.56L26.28 7.56Z" fill="rgba(255,255,255,1)"></path></g></svg>