<?xml version="1.0" standalone="no"?>
<svg xmlns="http://www.w3.org/2000/svg" width="24" height="24"><rect width="24" height="24" opacity="0"></rect><g><path d="M12 22.99Q14.98 22.99 17.51 21.52Q20.04 20.04 21.52 17.51Q22.99 14.98 22.99 12Q22.99 9.02 21.52 6.49Q20.04 3.96 17.51 2.48Q14.98 1.01 12 1.01Q9.02 1.01 6.49 2.48Q3.96 3.96 2.48 6.49Q1.01 9.02 1.01 12Q1.01 14.98 2.48 17.51Q3.96 20.04 6.49 21.52Q9.02 22.99 12 22.99ZM12 2.5Q14.57 2.5 16.75 3.78Q18.94 5.06 20.22 7.25Q21.5 9.43 21.5 12Q21.5 14.57 20.22 16.75Q18.94 18.94 16.75 20.22Q14.57 21.5 12 21.5Q9.43 21.5 7.25 20.22Q5.06 18.94 3.78 16.75Q2.5 14.57 2.5 12Q2.5 9.43 3.78 7.25Q5.06 5.06 7.25 3.78Q9.43 2.5 12 2.5Z" fill="rgba(0,0,0,0.9019607843137255)"></path><path d="M17.74 16.01Q18.05 16.01 18.28 15.78Q18.5 15.55 18.5 15.24Q18.5 14.93 18.29 14.71Q18.07 14.5 17.76 14.5L6 14.5Q5.69 14.5 5.47 14.71Q5.26 14.93 5.26 15.24Q5.26 15.55 5.47 15.78Q5.69 16.01 6 16.01L17.74 16.01ZM6.48 9.5Q6.79 9.5 7.01 9.28Q7.22 9.05 7.22 8.76Q7.22 8.45 7.01 8.22Q6.79 7.99 6.48 7.99L5.98 7.99Q5.66 7.99 5.45 8.22Q5.23 8.45 5.23 8.76Q5.23 9.05 5.45 9.28Q5.66 9.5 5.98 9.5L6.48 9.5ZM14.16 9.5Q14.47 9.5 14.69 9.28Q14.9 9.05 14.9 8.76Q14.9 8.45 14.69 8.22Q14.47 7.99 14.16 7.99L13.66 7.99Q13.34 7.99 13.13 8.22Q12.91 8.45 12.91 8.76Q12.91 9.05 13.13 9.28Q13.34 9.5 13.66 9.5L14.16 9.5ZM8.23 12.77Q8.54 12.77 8.76 12.54Q8.98 12.31 8.98 12Q8.98 11.69 8.76 11.47Q8.54 11.26 8.23 11.26L7.73 11.26Q7.42 11.26 7.2 11.47Q6.98 11.69 6.98 12Q6.98 12.31 7.2 12.54Q7.42 12.77 7.73 12.77L8.23 12.77ZM10.32 9.5Q10.63 9.5 10.85 9.28Q11.06 9.05 11.06 8.76Q11.06 8.45 10.85 8.22Q10.63 7.99 10.32 7.99L9.82 7.99Q9.5 7.99 9.29 8.22Q9.07 8.45 9.07 8.76Q9.07 9.05 9.29 9.28Q9.5 9.5 9.82 9.5L10.32 9.5ZM12.24 12.77Q12.55 12.77 12.77 12.54Q12.98 12.31 12.98 12Q12.98 11.69 12.77 11.47Q12.55 11.26 12.24 11.26L11.74 11.26Q11.42 11.26 11.21 11.47Q10.99 11.69 10.99 12Q10.99 12.31 11.21 12.54Q11.42 12.77 11.74 12.77L12.24 12.77ZM16.25 12.77Q16.56 12.77 16.78 12.54Q16.99 12.31 16.99 12Q16.99 11.69 16.78 11.47Q16.56 11.26 16.25 11.26L15.74 11.26Q15.43 11.26 15.22 11.47Q15 11.69 15 12Q15 12.31 15.22 12.54Q15.43 12.77 15.74 12.77L16.25 12.77ZM18 9.5Q18.31 9.5 18.53 9.28Q18.74 9.05 18.74 8.76Q18.74 8.45 18.53 8.22Q18.31 7.99 18 7.99L17.5 7.99Q17.18 7.99 16.96 8.22Q16.73 8.45 16.73 8.76Q16.73 9.05 16.96 9.28Q17.18 9.5 17.5 9.5L18 9.5Z" fill="rgba(0,0,0,0.9019607843137255)"></path></g></svg>