<?xml version="1.0" standalone="no"?>
<svg xmlns="http://www.w3.org/2000/svg" width="24" height="24"><rect width="24" height="24" opacity="0"></rect><g><path d="M13.32 2.47Q13.1 2.14 12.74 1.94Q12.38 1.75 12 1.75Q11.59 1.75 11.21 1.99Q10.82 2.23 10.63 2.64L2.93 20.11Q2.64 20.78 2.92 21.34Q3.19 21.89 3.79 22.1Q4.39 22.32 4.94 22.08L12 18.74L19.06 22.08Q19.61 22.32 20.21 22.1Q20.81 21.89 21.08 21.34Q21.36 20.78 21.05 20.11L13.39 2.64ZM12.29 5.81Q12.29 5.62 12.13 5.54Q11.98 5.47 11.83 5.54Q11.69 5.62 11.69 5.81L11.02 17.54L4.3 20.71L12 3.26L19.68 20.71L12.96 17.52L12.29 5.81Z" fill="rgba(0,0,0,0.9019607843137255)"></path></g></svg>