<?xml version="1.0" standalone="no"?>
<svg xmlns="http://www.w3.org/2000/svg" width="24" height="24"><rect width="24" height="24" opacity="0"></rect><g><path d="M4.18 17.14L3.07 19.08Q2.9 19.39 3.04 19.69Q3.17 19.99 3.47 20.12Q3.77 20.26 4.08 20.09L6.02 18.98Q6.43 18.72 7.01 18.29L4.85 16.13ZM7.73 17.64Q8.26 17.21 8.42 17.04L19.01 6.55Q19.49 6.05 19.49 5.36Q19.49 4.68 19.01 4.2Q18.53 3.72 17.84 3.72Q17.16 3.72 16.66 4.2L6.1 14.71Q6 14.81 5.84 14.98Q5.69 15.14 5.5 15.41L7.73 17.64Z" fill="rgba(255,255,255,1)"></path><path d="M13.13 20.26Q14.38 20.26 15.84 19.58Q17.06 19.01 17.76 19.1Q18.46 19.2 18.96 19.7Q19.3 20.06 19.79 20.05Q20.28 20.04 20.64 19.7Q20.98 19.37 20.98 18.86Q20.98 18.36 20.64 18.02Q19.66 17.06 18.22 16.76Q16.78 16.46 14.81 17.42Q13.61 18.02 12.94 17.92Q12.26 17.81 11.71 17.28Q11.38 16.94 10.87 16.94Q10.37 16.94 10.03 17.28Q9.7 17.62 9.7 18.12Q9.7 18.62 10.03 18.96Q11.4 20.26 13.13 20.26Z" fill="rgba(255,255,255,1)"></path></g></svg>