<?xml version="1.0" standalone="no"?>
<svg xmlns="http://www.w3.org/2000/svg" width="32" height="32"><rect width="32" height="32" opacity="0"></rect><g><path d="M25.34 4.67Q26.18 4.67 26.75 5.25Q27.33 5.82 27.33 6.66L27.33 25.34Q27.33 26.14 26.75 26.74Q26.18 27.33 25.34 27.33L6.66 27.33Q5.86 27.33 5.26 26.74Q4.67 26.14 4.67 25.34L4.67 6.66Q4.67 5.82 5.26 5.25Q5.86 4.67 6.66 4.67L25.34 4.67ZM6.66 2.66Q5.57 2.66 4.66 3.2Q3.74 3.74 3.2 4.66Q2.66 5.57 2.66 6.66L2.66 25.34Q2.66 26.43 3.2 27.34Q3.74 28.26 4.66 28.8Q5.57 29.34 6.66 29.34L25.34 29.34Q26.43 29.34 27.34 28.8Q28.26 28.26 28.8 27.34Q29.34 26.43 29.34 25.34L29.34 6.66Q29.34 5.57 28.8 4.66Q28.26 3.74 27.34 3.2Q26.43 2.66 25.34 2.66L6.66 2.66Z" fill="rgba(0,0,0,0.9019607843137255)"></path><path d="M16.99 15.01L16.99 9.66Q16.99 9.25 16.7 8.96Q16.42 8.67 16 8.67Q15.58 8.67 15.3 8.96Q15.01 9.25 15.01 9.66L15.01 15.01L9.66 15.01Q9.25 15.01 8.96 15.3Q8.67 15.58 8.67 16Q8.67 16.42 8.96 16.7Q9.25 16.99 9.66 16.99L15.01 16.99L15.01 22.34Q15.01 22.75 15.3 23.04Q15.58 23.33 16 23.33Q16.42 23.33 16.7 23.04Q16.99 22.75 16.99 22.34L16.99 16.99L22.34 16.99Q22.75 16.99 23.04 16.7Q23.33 16.42 23.33 16Q23.33 15.58 23.04 15.3Q22.75 15.01 22.34 15.01Z" fill="rgba(0,0,0,0.9019607843137255)"></path></g></svg>