<?xml version="1.0" standalone="no"?><!DOCTYPE svg PUBLIC "-//W3C//DTD SVG 1.1//EN" "http://www.w3.org/Graphics/SVG/1.1/DTD/svg11.dtd"><svg t="1736307872249" class="icon" viewBox="0 0 1024 1024" version="1.1" xmlns="http://www.w3.org/2000/svg" p-id="15655" data-darkreader-inline-fill="" width="32" height="32" xmlns:xlink="http://www.w3.org/1999/xlink"><path d="M272 128m64 0l0 0q64 0 64 64l0 256q0 64-64 64l0 0q-64 0-64-64l0-256q0-64 64-64Z" fill="#C9F0FF" p-id="15656" style="--darkreader-inline-fill: #00364b;" data-darkreader-inline-fill=""></path><path d="M336 528a80 80 0 0 1-80-80V192a80 80 0 0 1 160 0v256a80 80 0 0 1-80 80z m0-384a48 48 0 0 0-48 48v256a48 48 0 0 0 96 0V192a48 48 0 0 0-48-48z" fill="#0067FF" p-id="15657" style="--darkreader-inline-fill: #004ab8;" data-darkreader-inline-fill=""></path><path d="M624 16m64 0l0 0q64 0 64 64l0 256q0 64-64 64l0 0q-64 0-64-64l0-256q0-64 64-64Z" fill="#C9F0FF" p-id="15658" style="--darkreader-inline-fill: var(--darkreader-background-c9f0ff, #00364b);" data-darkreader-inline-fill=""></path><path d="M688 416a80 80 0 0 1-80-80V80a80 80 0 0 1 160 0v256a80 80 0 0 1-80 80z m0-384a48 48 0 0 0-48 48v256a48 48 0 0 0 96 0V80a48 48 0 0 0-48-48z" fill="#0067FF" p-id="15659" style="--darkreader-inline-fill: var(--darkreader-background-0067ff, #004ab8);" data-darkreader-inline-fill=""></path><path d="M128 288m192 0l384 0q192 0 192 192l0 272q0 192-192 192l-384 0q-192 0-192-192l0-272q0-192 192-192Z" fill="#FFFFFF" p-id="15660" style="--darkreader-inline-fill: var(--darkreader-background-ffffff, #161718);" data-darkreader-inline-fill=""></path><path d="M704 960H320C205.12 960 112 866.88 112 752V480c0-114.88 93.12-208 208-208h384c114.88 0 208 93.12 208 208v272a208 208 0 0 1-208 208zM320 304C222.8 304 144 382.8 144 480v272c0 97.2 78.8 176 176 176h384c97.2 0 176-78.8 176-176V480c0-97.2-78.8-176-176-176H320z" fill="#0067FF" p-id="15661" style="--darkreader-inline-fill: var(--darkreader-background-0067ff, #004ab8);" data-darkreader-inline-fill=""></path><path d="M384 576m-96 0a96 96 0 1 0 192 0 96 96 0 1 0-192 0Z" fill="#FFFFFF" p-id="15662" style="--darkreader-inline-fill: var(--darkreader-background-ffffff, #161718);" data-darkreader-inline-fill=""></path><path d="M384 688a112 112 0 1 1 0-224 112 112 0 0 1 0 224z m0-192a80 80 0 1 0 0 160 80 80 0 0 0 0-160z" fill="#0067FF" p-id="15663" style="--darkreader-inline-fill: var(--darkreader-background-0067ff, #004ab8);" data-darkreader-inline-fill=""></path><path d="M672 576m-96 0a96 96 0 1 0 192 0 96 96 0 1 0-192 0Z" fill="#C9F0FF" p-id="15664" style="--darkreader-inline-fill: var(--darkreader-background-c9f0ff, #00364b);" data-darkreader-inline-fill=""></path><path d="M672 688a112 112 0 1 1 0-224 112 112 0 0 1 0 224z m0-192a80 80 0 1 0 0 160 80 80 0 0 0 0-160z" fill="#0067FF" p-id="15665" style="--darkreader-inline-fill: var(--darkreader-background-0067ff, #004ab8);" data-darkreader-inline-fill=""></path><path d="M352 768m16 0l288 0q16 0 16 16l0 0q0 16-16 16l-288 0q-16 0-16-16l0 0q0-16 16-16Z" fill="#0067FF" p-id="15666" style="--darkreader-inline-fill: var(--darkreader-background-0067ff, #004ab8);" data-darkreader-inline-fill=""></path><path d="M272 944m32 0l416 0q32 0 32 32l0 0q0 32-32 32l-416 0q-32 0-32-32l0 0q0-32 32-32Z" fill="#C9F0FF" p-id="15667" style="--darkreader-inline-fill: var(--darkreader-background-c9f0ff, #00364b);" data-darkreader-inline-fill=""></path><path d="M720 1024H304a48 48 0 0 1 0-96h416a48 48 0 0 1 0 96z m-416-64a16 16 0 0 0 0 32h416a16 16 0 0 0 0-32H304z" fill="#0067FF" p-id="15668" style="--darkreader-inline-fill: var(--darkreader-background-0067ff, #004ab8);" data-darkreader-inline-fill=""></path></svg>