<?xml version="1.0" standalone="no"?><!DOCTYPE svg PUBLIC "-//W3C//DTD SVG 1.1//EN" "http://www.w3.org/Graphics/SVG/1.1/DTD/svg11.dtd"><svg t="1743214149434" class="icon" viewBox="0 0 1024 1024" version="1.1" xmlns="http://www.w3.org/2000/svg" p-id="3441" data-darkreader-inline-fill="" xmlns:xlink="http://www.w3.org/1999/xlink" width="24" height="24"><path d="M0 224v576c0 35.3 28.7 64 64 64h896c35.3 0 64-28.7 64-64V224c0-35.3-28.7-64-64-64H64c-35.3 0-64 28.7-64 64z m512-48c8.8 0 16 7.2 16 16s-7.2 16-16 16-16-7.2-16-16 7.2-16 16-16z m432 624H80c-8.8 0-16-7.2-16-16V240c0-8.8 7.2-16 16-16h864c8.8 0 16 7.2 16 16v544c0 8.8-7.2 16-16 16z" p-id="3442"></path></svg>