<?xml version="1.0" standalone="no"?><!DOCTYPE svg PUBLIC "-//W3C//DTD SVG 1.1//EN" "http://www.w3.org/Graphics/SVG/1.1/DTD/svg11.dtd"><svg t="1736308143739" class="icon" viewBox="0 0 1024 1024" version="1.1" xmlns="http://www.w3.org/2000/svg" p-id="17469" data-darkreader-inline-fill="" xmlns:xlink="http://www.w3.org/1999/xlink" width="32" height="32"><path d="M554.666667 349.44a48.213333 48.213333 0 1 1-47.786667 47.786667A48.213333 48.213333 0 0 1 554.666667 349.44m0-85.333333a133.546667 133.546667 0 1 0 133.546666 133.12A133.12 133.12 0 0 0 554.666667 264.106667z" fill="#666666" p-id="17470" style="--darkreader-inline-fill: var(--darkreader-background-666666, #454b4d);" data-darkreader-inline-fill=""></path><path d="M768 759.893333a42.666667 42.666667 0 0 1-42.666667-42.666666 170.666667 170.666667 0 0 0-341.333333 0 42.666667 42.666667 0 0 1-85.333333 0 256 256 0 0 1 512 0 42.666667 42.666667 0 0 1-42.666667 42.666666z" fill="#666666" p-id="17471" style="--darkreader-inline-fill: var(--darkreader-background-666666, #454b4d);" data-darkreader-inline-fill=""></path><path d="M554.666667 213.333333a341.333333 341.333333 0 1 1-341.333334 341.333334 341.333333 341.333333 0 0 1 341.333334-341.333334m0-85.333333a426.666667 426.666667 0 1 0 426.666666 426.666667A426.666667 426.666667 0 0 0 554.666667 128z" fill="#666666" p-id="17472" style="--darkreader-inline-fill: var(--darkreader-background-666666, #454b4d);" data-darkreader-inline-fill=""></path></svg>