<?xml version="1.0" standalone="no"?>
<svg xmlns="http://www.w3.org/2000/svg" width="40" height="40"><rect width="40" height="40" opacity="0"></rect><g><path d="M21.24 18.76L21.24 5Q21.24 4.48 20.88 4.12Q20.52 3.76 20 3.76Q19.48 3.76 19.12 4.12Q18.76 4.48 18.76 5L18.76 18.76L5 18.76Q4.48 18.76 4.12 19.12Q3.76 19.48 3.76 20Q3.76 20.52 4.12 20.88Q4.48 21.24 5 21.24L18.76 21.24L18.76 35Q18.76 35.52 19.12 35.88Q19.48 36.24 20 36.24Q20.52 36.24 20.88 35.88Q21.24 35.52 21.24 35L21.24 21.24L35 21.24Q35.52 21.24 35.88 20.88Q36.24 20.52 36.24 20Q36.24 19.48 35.88 19.12Q35.52 18.76 35 18.76Z" fill="rgba(0,0,0,0.9019607843137255)"></path></g></svg>